<?xml version="1.0" encoding="utf-8"?>
<!-- Generator: Adobe Illustrator 18.1.1, SVG Export Plug-In . SVG Version: 6.00 Build 0)  -->
<!DOCTYPE svg PUBLIC "-//W3C//DTD SVG 1.1//EN" "http://www.w3.org/Graphics/SVG/1.1/DTD/svg11.dtd">
<svg version="1.1" id="Layer_1" xmlns="http://www.w3.org/2000/svg" xmlns:xlink="http://www.w3.org/1999/xlink" x="0px" y="0px"
	 viewBox="0 0 402.8 113" enable-background="new 0 0 402.8 113" xml:space="preserve">
<path fill="#214F6E" d="M195.5,58c0-6.4,3.9-8.5,9.6-7.5v-7.6c-3.2-0.8-7.6-0.2-10.7,1c-1.5,0.5-2.7,1.4-3.8,2.5
	c-1.1,1.1-1.9,2.5-2.6,4.2c-0.6,1.7-0.9,3.6-0.9,5.9v40h8.4V58L195.5,58z M148,97.7v-7l0.3,0c5.4,0,9.6-1.8,12.5-5.3
	c2.9-3.5,4.4-8.5,4.4-14.9c0-6.5-1.4-11.6-4.4-15.1c-2.9-3.5-7.1-5.3-12.5-5.3l-0.3,0v-7c0.3,0,0.6,0,0.9,0c7.8,0,13.9,2.4,18.2,7.2
	c4.4,4.8,6.6,11.4,6.6,19.9c0,8.3-2.4,15-7.1,20C162,95.2,155.8,97.7,148,97.7L148,97.7z M225.6,81.9c0,4.8,1.8,7.2,5.6,7.2
	c1.5,0,2.8-0.2,4-0.6v7.6c-0.6,0.2-1.5,0.3-2.6,0.5c-1.1,0.2-2.2,0.2-3.4,0.2c-1.7,0-3.2-0.3-4.7-0.8c-1.5-0.6-2.7-1.4-3.8-2.5
	c-1.1-1.1-1.9-2.5-2.6-4.2c-0.6-1.7-0.9-3.6-0.9-5.9V19.1h8.4V81.9z M148,43v7c-5.2,0.1-9.4,1.9-12.4,5.5c-3.1,3.7-4.7,8.7-4.7,15.1
	c0,6.2,1.6,11.1,4.8,14.6c3.1,3.5,7.2,5.3,12.4,5.4v7h-0.3c-7.7,0-13.9-2.4-18.5-7.3c-4.6-4.9-6.9-11.4-6.9-19.4
	c0-8.8,2.4-15.6,7.2-20.6C134.1,45.7,140.3,43.2,148,43z"/>
<path fill="#214F6E" d="M326.7,43c0.3,0,0.6,0,0.9,0c7.8,0,13.9,2.4,18.2,7.2c4.4,4.8,6.5,11.4,6.5,19.9c0,8.3-2.4,15-7.1,20
	c-4.7,5-10.9,7.5-18.7,7.5v-7l0.3,0c5.4,0,9.6-1.8,12.5-5.3c2.9-3.5,4.4-8.5,4.4-14.9c0-6.5-1.4-11.6-4.4-15.1
	c-2.9-3.5-7.1-5.3-12.5-5.3l-0.3,0V43L326.7,43z M402.8,44.3l-17.6,26.4l17.2,25.8h-9.7l-10.3-16.9c-0.6-1-1.4-2.4-2.3-4h-0.2
	c-0.2,0.3-1,1.6-2.4,4l-10.5,16.9h-9.7l17.8-25.6l-17.1-26.6h9.8l10.1,17.9c0.8,1.3,1.5,2.7,2.2,4.1h0.2l13.1-22H402.8z M326.4,97.7
	c-7.7,0-13.9-2.4-18.5-7.3c-4.6-4.9-6.9-11.4-6.9-19.4c0-8.8,2.4-15.6,7.2-20.6c4.6-4.7,10.8-7.2,18.5-7.4v7
	c-5.2,0.1-9.4,1.9-12.4,5.5c-3.1,3.7-4.7,8.7-4.7,15.1c0,6.2,1.6,11.1,4.8,14.6c3.1,3.5,7.2,5.3,12.4,5.4v7H326.4L326.4,97.7z
	 M281.8,72.1c0,5.1-1.4,9.4-4.4,12.8c-2.9,3.4-6.7,5-11.4,5c-4.7,0-8.5-1.7-11.3-5.2c-2.8-3.5-4.2-8.2-4.2-14.3
	c0-6.6,1.5-11.8,4.4-15.5c2.9-3.7,6.9-5.6,12.1-5.6c2.2,0,4.3,0.4,6.1,1.2V43c-2-0.5-4.3-0.7-7.2-0.7c-7.1-0.1-13.1,2.6-17.4,7.8
	c-4.4,5.2-6.5,12.1-6.5,20.8c0,8.1,2,14.4,5.9,19.1c3.9,4.7,9.2,7,15.7,7c23,0,25.6-13.3,26.6-21.2V19.3c-4.3-0.5-7.4,0.9-8.4,4.8
	C281.8,40.5,281.8,55.7,281.8,72.1z"/>
<g display="none">
	<defs>
		<polygon id="SVGID_1_" points="103.8,45.3 103.8,47 103.6,48.8 103.4,50.5 103.1,52.3 102.7,54 102.1,55.8 101.5,57.4 100.8,59.1 
			100,60.7 99.2,62.3 98.2,63.9 97.2,65.4 96,67 94.8,68.4 93.5,69.8 92.1,71.2 90.7,72.5 89.2,73.7 87.7,74.9 86,76 84.4,77.1 
			82.6,78.1 80.8,79.1 78.9,79.9 77,80.8 75.1,81.5 73.1,82.1 71.1,82.7 69.1,83.2 67,83.7 65,84 62.9,84.3 60.8,84.5 58.6,84.6 
			56.5,84.6 54.4,84.6 52.3,84.5 50.1,84.3 48,84 46,83.7 43.9,83.2 41.9,82.7 39.9,82.1 37.9,81.5 36,80.8 34.1,79.9 32.2,79.1 
			30.4,78.1 28.7,77.1 27,76 25.4,74.9 23.8,73.7 22.3,72.5 20.8,71.2 19.5,69.8 18.2,68.4 17,67 15.9,65.4 14.8,63.9 13.9,62.3 
			13,60.7 12.2,59.1 11.5,57.4 10.9,55.8 10.4,54 9.9,52.3 9.6,50.5 9.4,48.8 9.2,47 9.2,45.3 9.2,43.5 9.4,41.7 9.6,40 9.9,38.2 
			10.4,36.5 10.9,34.8 11.5,33.1 12.2,31.5 13,29.8 13.9,28.2 14.8,26.6 15.9,25.1 17,23.6 18.2,22.1 19.5,20.7 20.8,19.4 
			22.3,18.1 23.8,16.8 25.4,15.6 27,14.5 28.7,13.4 30.4,12.4 32.2,11.4 34.1,10.6 36,9.8 37.9,9.1 39.9,8.4 41.9,7.8 43.9,7.3 
			46,6.9 48,6.5 50.1,6.2 52.3,6.1 54.4,5.9 56.5,5.9 58.6,5.9 60.8,6.1 62.9,6.2 65,6.5 67,6.9 69.1,7.3 71.1,7.8 73.1,8.4 
			75.1,9.1 77,9.8 78.9,10.6 80.8,11.4 82.6,12.4 84.4,13.4 86,14.5 87.7,15.6 89.2,16.8 90.7,18.1 92.1,19.4 93.5,20.7 94.8,22.1 
			96,23.6 97.2,25.1 98.2,26.6 99.2,28.2 100,29.8 100.8,31.5 101.5,33.1 102.1,34.8 102.7,36.5 103.1,38.2 103.4,40 103.6,41.7 
			103.8,43.5 		"/>
	</defs>
	<clipPath id="SVGID_2_" display="inline">
		<use xlink:href="#SVGID_1_"  overflow="visible"/>
	</clipPath>
	<g display="inline" clip-path="url(#SVGID_2_)">
		
			<image overflow="visible" width="81" height="68" xlink:href="6DF02960.jpg"  transform="matrix(1.1684 0 0 1.1581 9.1861 5.8896)">
		</image>
	</g>
</g>
<path fill-rule="evenodd" clip-rule="evenodd" fill="#214F6E" d="M56.5,0C25.3,0,0,25.3,0,56.5C0,87.7,25.3,113,56.5,113
	c31.2,0,56.5-25.3,56.5-56.5C113,25.3,87.7,0,56.5,0z M92.6,89.5c-2.9,2.1-7.5,3.9-10.4,4.6C81.3,78.3,78,59.5,71.6,43.9
	c-2.4,18.3-7.2,35.9-14.6,53.5c-10.9,2.2-16.4-3.8-19.1-9.7c-7.2-21.2-10.1-41.9-15.1-62.1c5.5-0.7,10.7,0.1,16.3,0.8
	C43.5,43.2,47,60.1,50.1,77C54.4,60.4,60.5,42.5,63,26.2c4.4,0.2,10.5,0.3,15.1,1.9c6.5,14,11.2,31.2,11.7,46.8
	c3.6-13.8,6.7-32,5.5-44.2c1.5,0.2,5.9,2,7.2,3.3C105,51.7,100.6,75.2,92.6,89.5z"/>
<path display="none" fill="#8E84B7" d="M411.4,46.1h0.2c0.5,0,0.8,0,1,0.1c0.2,0.1,0.4,0.3,0.6,0.5c0.1,0.2,0.2,0.5,0.2,0.8
	c0,0.4-0.1,0.7-0.4,0.9c-0.2,0.2-0.6,0.4-1.1,0.5c0.2,0.1,0.3,0.2,0.4,0.3c0.2,0.2,0.4,0.4,0.6,0.7l0.9,1.4H413l-0.7-1.1
	c-0.2-0.3-0.4-0.5-0.5-0.7c-0.1-0.2-0.2-0.3-0.3-0.3c0,0-0.1,0-0.1-0.1v-0.7h0.1c0.3,0,0.6,0,0.7-0.1c0.2-0.1,0.3-0.2,0.4-0.3
	c0.1-0.1,0.1-0.3,0.1-0.5c0-0.2-0.1-0.4-0.3-0.6c-0.2-0.2-0.5-0.2-0.8-0.2h-0.3V46.1z M409.3,51.3v-5.2h2v0.6H410v1.7h1.4v0.7
	c-0.1,0-0.1-0.1-0.2-0.1c-0.1,0-0.2,0-0.4,0H410v2.3H409.3z"/>
<path display="none" fill="#8E84B7" d="M411.2,44.2c1.3,0,2.4,0.5,3.2,1.3l0,0c0.8,0.8,1.3,2,1.3,3.2c0,1.3-0.5,2.4-1.3,3.2l0,0
	c-0.8,0.8-2,1.3-3.2,1.3v-0.5c1.1,0,2.1-0.5,2.9-1.2c0.7-0.7,1.2-1.7,1.2-2.9c0-1.1-0.5-2.1-1.2-2.8v0l0,0c-0.7-0.7-1.7-1.2-2.9-1.2
	V44.2z M411.2,53.3c-1.3,0-2.4-0.5-3.2-1.3h0c-0.8-0.8-1.3-2-1.3-3.2c0-1.3,0.5-2.4,1.3-3.2h0c0.8-0.8,2-1.3,3.2-1.3v0.5
	c-1.1,0-2.1,0.5-2.9,1.2c-0.7,0.7-1.2,1.7-1.2,2.9c0,1.1,0.5,2.1,1.2,2.9c0.7,0.7,1.7,1.2,2.9,1.2V53.3z"/>
</svg>
